# xmcd CD database file
#
# Track frame offsets:
#	150
#	22082
#	46514
#	66040
#	92683
#	125063
#	159294
#	179829
#	209631
#	239854
#	263782
#	283564
#
# Disc length: 3957 seconds
#
# Revision: 0
# Processed by: cddbd v1.5.2PL0 Copyright (c) Steve Scherf et al.
# Submitted via: CDex 1.51
#
DISCID=b30f730c
DTITLE=Victor Wooten - Palmystery
DYEAR=1900
DGENRE=Jazz
TTITLE0=2 Timers
TTITLE1=Cambo
TTITLE2=I Saw God
TTITLE3=The Lesson
TTITLE4=Left, Right and Center
TTITLE5=Sifu
TTITLE6=Miss U
TTITLE7=Flex
TTITLE8=The Gospel
TTITLE9=Song For My Father
TTITLE10=Happy Song
TTITLE11=Us 2
EXTD=
EXTT0=
EXTT1=
EXTT2=
EXTT3=
EXTT4=
EXTT5=
EXTT6=
EXTT7=
EXTT8=
EXTT9=
EXTT10=
EXTT11=
PLAYORDER=
